ffmpeg started on 2025-06-21 at 12:41:33
Report written to "D:\Convert\FFMetrics\reports\ssim_report-6.txt"
Log level: 32
Command line:
ffmpeg -hide_banner -nostdin -i "G:\\\xc0\xed\xe8\xec\xe5\\[\xd2\xee\xef-4]\\\xc4\xe5\xf0\xe6\xe0\xf1\xfc \xc7\xe0 \xd0\xf3\xea\xe8\\Hand_Shakers_[09]_[AniLibria.TV]_[HDTV-Rip_720p]_HEVC.mkv" -i "G:\\\xc0\xed\xe8\xec\xe5\\[\xd2\xee\xef-4]\\\xc4\xe5\xf0\xe6\xe0\xf1\xfc \xc7\xe0 \xd0\xf3\xea\xe8\\Hand_Shakers_[09]_[AniLibria.TV]_[HDTV-Rip_720p].mkv" -lavfi "[0:v]settb=AVTB,setpts=PTS-STARTPTS,format=pix_fmts=yuv420p10,fps=30000/1001,scale=1280:720:flags=bicubic[main];[1:v]settb=AVTB,setpts=PTS-STARTPTS,format=pix_fmts=yuv420p,fps=30000/1001,scale=1280:720:flags=bicubic[ref];[main][ref]ssim=eof_action=endall:stats_file='D\\:/Convert/FFMetrics/logs/ssim_logfile-6.txt'" -f null -
Input #0, matroska,webm, from 'G:\Аниме\[Топ-4]\Держась За Руки\Hand_Shakers_[09]_[AniLibria.TV]_[HDTV-Rip_720p]_HEVC.mkv':
  Metadata:
    ENCODER         : Lavf61.7.100
  Duration: 00:23:59.87, start: -0.021000, bitrate: 2406 kb/s
  Stream #0:0(jpn): Video: hevc (Main 10), yuv420p10le(tv, bt709, progressive), 1280x720 [SAR 1:1 DAR 16:9], 29.97 fps, 29.97 tbr, 1k tbn (default)
      Metadata:
        ENCODER         : Lavc61.19.100 libx265
        BPS             : 2208060
        DURATION        : 00:23:59.738366664
        NUMBER_OF_FRAMES: 43149
        NUMBER_OF_BYTES : 397378563
        _STATISTICS_WRITING_APP: mkvpropedit v66.0.0 ('Josie') 64-bit
        _STATISTICS_WRITING_DATE_UTC: 2025-06-20 17:14:42
        _STATISTICS_TAGS: BPS DURATION NUMBER_OF_FRAMES NUMBER_OF_BYTES
  Stream #0:1(rus): Audio: aac (LC), 48000 Hz, stereo, fltp (default) (forced)
      Metadata:
        title           : Амикири и Анзен
        ENCODER         : Lavc61.19.100 aac
        BPS             : 193895
        DURATION        : 00:23:59.850000000
        NUMBER_OF_FRAMES: 67494
        NUMBER_OF_BYTES : 34897606
        _STATISTICS_WRITING_APP: mkvpropedit v66.0.0 ('Josie') 64-bit
        _STATISTICS_WRITING_DATE_UTC: 2025-06-20 17:14:42
        _STATISTICS_TAGS: BPS DURATION NUMBER_OF_FRAMES NUMBER_OF_BYTES
  Stream #0:2(rus): Subtitle: ass (ssa) (default) (forced)
      Metadata:
        title           : Надписи
        BPS             : 31
        DURATION        : 00:22:54.050000000
        NUMBER_OF_FRAMES: 29
        NUMBER_OF_BYTES : 5466
        _STATISTICS_WRITING_APP: mkvpropedit v66.0.0 ('Josie') 64-bit
        _STATISTICS_WRITING_DATE_UTC: 2025-06-20 17:14:42
        _STATISTICS_TAGS: BPS DURATION NUMBER_OF_FRAMES NUMBER_OF_BYTES
  Stream #0:3(rus): Subtitle: ass (ssa)
      Metadata:
        title           : Субтитры
        BPS             : 150
        DURATION        : 00:23:48.600000000
        NUMBER_OF_FRAMES: 342
        NUMBER_OF_BYTES : 26827
        _STATISTICS_WRITING_APP: mkvpropedit v66.0.0 ('Josie') 64-bit
        _STATISTICS_WRITING_DATE_UTC: 2025-06-20 17:14:42
        _STATISTICS_TAGS: BPS DURATION NUMBER_OF_FRAMES NUMBER_OF_BYTES
Input #1, matroska,webm, from 'G:\Аниме\[Топ-4]\Держась За Руки\Hand_Shakers_[09]_[AniLibria.TV]_[HDTV-Rip_720p].mkv':
  Metadata:
    encoder         : libebml v1.4.2 + libmatroska v1.6.4
    creation_time   : 2024-12-27T17:07:31.000000Z
  Duration: 00:23:59.85, start: 0.000000, bitrate: 5160 kb/s
  Stream #1:0(jpn): Video: h264 (High), yuv420p(tv, bt709, progressive), 1280x720 [SAR 1:1 DAR 16:9], 29.97 fps, 29.97 tbr, 1k tbn (default)
      Metadata:
        BPS             : 4966030
        DURATION        : 00:23:59.738000000
        NUMBER_OF_FRAMES: 43149
        NUMBER_OF_BYTES : 893722820
        _STATISTICS_WRITING_APP: mkvmerge v66.0.0 ('Josie') 64-bit
        _STATISTICS_WRITING_DATE_UTC: 2024-12-27 17:07:31
        _STATISTICS_TAGS: BPS DURATION NUMBER_OF_FRAMES NUMBER_OF_BYTES
  Stream #1:1(rus): Audio: aac (LC), 48000 Hz, stereo, fltp (default) (forced)
      Metadata:
        title           : Амикири и Анзен
        BPS             : 189375
        DURATION        : 00:23:59.850000000
        NUMBER_OF_FRAMES: 67493
        NUMBER_OF_BYTES : 34083965
        _STATISTICS_WRITING_APP: mkvmerge v66.0.0 ('Josie') 64-bit
        _STATISTICS_WRITING_DATE_UTC: 2024-12-27 17:07:31
        _STATISTICS_TAGS: BPS DURATION NUMBER_OF_FRAMES NUMBER_OF_BYTES
  Stream #1:2(rus): Subtitle: ass (ssa) (default) (forced)
      Metadata:
        title           : Надписи
        BPS             : 31
        DURATION        : 00:22:54.050000000
        NUMBER_OF_FRAMES: 29
        NUMBER_OF_BYTES : 5466
        _STATISTICS_WRITING_APP: mkvmerge v66.0.0 ('Josie') 64-bit
        _STATISTICS_WRITING_DATE_UTC: 2024-12-27 17:07:31
        _STATISTICS_TAGS: BPS DURATION NUMBER_OF_FRAMES NUMBER_OF_BYTES
  Stream #1:3(rus): Subtitle: ass (ssa)
      Metadata:
        title           : Субтитры
        BPS             : 150
        DURATION        : 00:23:48.600000000
        NUMBER_OF_FRAMES: 342
        NUMBER_OF_BYTES : 26827
        _STATISTICS_WRITING_APP: mkvmerge v66.0.0 ('Josie') 64-bit
        _STATISTICS_WRITING_DATE_UTC: 2024-12-27 17:07:31
        _STATISTICS_TAGS: BPS DURATION NUMBER_OF_FRAMES NUMBER_OF_BYTES
  Stream #1:4: Attachment: ttf
      Metadata:
        filename        : 8651.ttf
        mimetype        : application/x-truetype-font
  Stream #1:5: Attachment: ttf
      Metadata:
        filename        : 10123.ttf
        mimetype        : application/x-truetype-font
  Stream #1:6: Attachment: ttf
      Metadata:
        filename        : 10322.ttf
        mimetype        : application/x-truetype-font
  Stream #1:7: Attachment: ttf
      Metadata:
        filename        : 10351.ttf
        mimetype        : application/x-truetype-font
  Stream #1:8: Attachment: ttf
      Metadata:
        filename        : 10436.ttf
        mimetype        : application/x-truetype-font
Stream mapping:
  Stream #0:0 (hevc) -> settb:default
  Stream #1:0 (h264) -> settb:default
  ssim:default -> Stream #0:0 (wrapped_avframe)
  Stream #0:1 -> #0:1 (aac (native) -> pcm_s16le (native))
Output #0, null, to 'pipe:':
  Metadata:
    encoder         : Lavf61.7.100
  Stream #0:0: Video: wrapped_avframe, yuv420p10le(tv, bt709, progressive), 1280x720 [SAR 1:1 DAR 16:9], q=2-31, 200 kb/s, 29.97 fps, 29.97 tbn
      Metadata:
        encoder         : Lavc61.19.100 wrapped_avframe
  Stream #0:1(rus): Audio: pcm_s16le, 48000 Hz, stereo, s16, 1536 kb/s (default) (forced)
      Metadata:
        title           : Амикири и Анзен
        _STATISTICS_TAGS: BPS DURATION NUMBER_OF_FRAMES NUMBER_OF_BYTES
        BPS             : 193895
        DURATION        : 00:23:59.850000000
        NUMBER_OF_FRAMES: 67494
        NUMBER_OF_BYTES : 34897606
        _STATISTICS_WRITING_APP: mkvpropedit v66.0.0 ('Josie') 64-bit
        _STATISTICS_WRITING_DATE_UTC: 2025-06-20 17:14:42
        encoder         : Lavc61.19.100 pcm_s16le
frame=  261 fps=0.0 q=-0.0 size=N/A time=00:00:08.70 bitrate=N/A speed=16.9x    frame=  648 fps=636 q=-0.0 size=N/A time=00:00:21.62 bitrate=N/A speed=21.2x    frame=  955 fps=617 q=-0.0 size=N/A time=00:00:31.86 bitrate=N/A speed=20.6x    frame= 1261 fps=611 q=-0.0 size=N/A time=00:00:42.07 bitrate=N/A speed=20.4x    frame= 1551 fps=602 q=-0.0 size=N/A time=00:00:51.75 bitrate=N/A speed=20.1x    frame= 1805 fps=583 q=-0.0 size=N/A time=00:01:00.26 bitrate=N/A speed=19.5x    frame= 2042 fps=566 q=-0.0 size=N/A time=00:01:08.13 bitrate=N/A speed=18.9x    frame= 2286 fps=556 q=-0.0 size=N/A time=00:01:16.27 bitrate=N/A speed=18.6x    frame= 2539 fps=548 q=-0.0 size=N/A time=00:01:24.71 bitrate=N/A speed=18.3x    frame= 2776 fps=540 q=-0.0 size=N/A time=00:01:32.62 bitrate=N/A speed=  18x    frame= 3011 fps=532 q=-0.0 size=N/A time=00:01:40.46 bitrate=N/A speed=17.8x    frame= 3218 fps=521 q=-0.0 size=N/A time=00:01:47.37 bitrate=N/A speed=17.4x    frame= 3427 fps=512 q=-0.0 size=N/A time=00:01:54.34 bitrate=N/A speed=17.1x    frame= 3656 fps=507 q=-0.0 size=N/A time=00:02:01.98 bitrate=N/A speed=16.9x    frame= 3919 fps=507 q=-0.0 size=N/A time=00:02:10.76 bitrate=N/A speed=16.9x    frame= 4127 fps=501 q=-0.0 size=N/A time=00:02:17.70 bitrate=N/A speed=16.7x    frame= 4608 fps=526 q=-0.0 size=N/A time=00:02:33.75 bitrate=N/A speed=17.6x    frame= 5052 fps=545 q=-0.0 size=N/A time=00:02:48.56 bitrate=N/A speed=18.2x    frame= 5394 fps=551 q=-0.0 size=N/A time=00:02:59.97 bitrate=N/A speed=18.4x    frame= 5913 fps=574 q=-0.0 size=N/A time=00:03:17.29 bitrate=N/A speed=19.2x    frame= 6429 fps=594 q=-0.0 size=N/A time=00:03:34.51 bitrate=N/A speed=19.8x    frame= 6949 fps=613 q=-0.0 size=N/A time=00:03:51.86 bitrate=N/A speed=20.5x    frame= 7430 fps=627 q=-0.0 size=N/A time=00:04:07.91 bitrate=N/A speed=20.9x    frame= 7968 fps=644 q=-0.0 size=N/A time=00:04:25.86 bitrate=N/A speed=21.5x    frame= 8496 fps=660 q=-0.0 size=N/A time=00:04:43.44 bitrate=N/A speed=  22x    frame= 9040 fps=675 q=-0.0 size=N/A time=00:05:01.63 bitrate=N/A speed=22.5x    frame= 9532 fps=685 q=-0.0 size=N/A time=00:05:18.05 bitrate=N/A speed=22.9x    frame=10020 fps=695 q=-0.0 size=N/A time=00:05:34.33 bitrate=N/A speed=23.2x    frame=10522 fps=704 q=-0.0 size=N/A time=00:05:51.08 bitrate=N/A speed=23.5x    frame=11074 fps=716 q=-0.0 size=N/A time=00:06:09.50 bitrate=N/A speed=23.9x    frame=11608 fps=726 q=-0.0 size=N/A time=00:06:27.32 bitrate=N/A speed=24.2x    frame=12149 fps=736 q=-0.0 size=N/A time=00:06:45.37 bitrate=N/A speed=24.6x    frame=12543 fps=738 q=-0.0 size=N/A time=00:06:58.51 bitrate=N/A speed=24.6x    frame=12928 fps=738 q=-0.0 size=N/A time=00:07:11.36 bitrate=N/A speed=24.6x    frame=13311 fps=738 q=-0.0 size=N/A time=00:07:24.14 bitrate=N/A speed=24.6x    frame=13588 fps=732 q=-0.0 size=N/A time=00:07:33.38 bitrate=N/A speed=24.4x    frame=13898 fps=729 q=-0.0 size=N/A time=00:07:43.72 bitrate=N/A speed=24.3x    frame=14306 fps=730 q=-0.0 size=N/A time=00:07:57.34 bitrate=N/A speed=24.4x    frame=14631 fps=728 q=-0.0 size=N/A time=00:08:08.18 bitrate=N/A speed=24.3x    frame=14975 fps=726 q=-0.0 size=N/A time=00:08:19.66 bitrate=N/A speed=24.2x    frame=15356 fps=726 q=-0.0 size=N/A time=00:08:32.37 bitrate=N/A speed=24.2x    frame=15713 fps=726 q=-0.0 size=N/A time=00:08:44.29 bitrate=N/A speed=24.2x    frame=16049 fps=724 q=-0.0 size=N/A time=00:08:55.50 bitrate=N/A speed=24.2x    frame=16354 fps=721 q=-0.0 size=N/A time=00:09:05.67 bitrate=N/A speed=24.1x    frame=16622 fps=716 q=-0.0 size=N/A time=00:09:14.62 bitrate=N/A speed=23.9x    frame=16874 fps=712 q=-0.0 size=N/A time=00:09:23.02 bitrate=N/A speed=23.7x    frame=17144 fps=708 q=-0.0 size=N/A time=00:09:32.03 bitrate=N/A speed=23.6x    frame=17422 fps=704 q=-0.0 size=N/A time=00:09:41.31 bitrate=N/A speed=23.5x    frame=17709 fps=701 q=-0.0 size=N/A time=00:09:50.89 bitrate=N/A speed=23.4x    frame=18056 fps=701 q=-0.0 size=N/A time=00:10:02.46 bitrate=N/A speed=23.4x    frame=18472 fps=703 q=-0.0 size=N/A time=00:10:16.34 bitrate=N/A speed=23.4x    frame=18907 fps=705 q=-0.0 size=N/A time=00:10:30.86 bitrate=N/A speed=23.5x    frame=19394 fps=710 q=-0.0 size=N/A time=00:10:47.11 bitrate=N/A speed=23.7x    frame=19715 fps=708 q=-0.0 size=N/A time=00:10:57.82 bitrate=N/A speed=23.6x    frame=19931 fps=703 q=-0.0 size=N/A time=00:11:05.03 bitrate=N/A speed=23.5x    frame=20268 fps=702 q=-0.0 size=N/A time=00:11:16.27 bitrate=N/A speed=23.4x    frame=20586 fps=701 q=-0.0 size=N/A time=00:11:26.88 bitrate=N/A speed=23.4x    frame=20895 fps=699 q=-0.0 size=N/A time=00:11:37.19 bitrate=N/A speed=23.3x    frame=21168 fps=696 q=-0.0 size=N/A time=00:11:46.30 bitrate=N/A speed=23.2x    frame=21458 fps=694 q=-0.0 size=N/A time=00:11:55.98 bitrate=N/A speed=23.1x    frame=21737 fps=691 q=-0.0 size=N/A time=00:12:05.29 bitrate=N/A speed=23.1x    frame=22068 fps=691 q=-0.0 size=N/A time=00:12:16.33 bitrate=N/A speed=  23x    frame=22377 fps=689 q=-0.0 size=N/A time=00:12:26.64 bitrate=N/A speed=  23x    frame=22710 fps=688 q=-0.0 size=N/A time=00:12:37.75 bitrate=N/A speed=  23x    frame=23074 fps=689 q=-0.0 size=N/A time=00:12:49.90 bitrate=N/A speed=  23x    frame=23441 fps=689 q=-0.0 size=N/A time=00:13:02.14 bitrate=N/A speed=  23x    frame=23713 fps=687 q=-0.0 size=N/A time=00:13:11.22 bitrate=N/A speed=22.9x    frame=23972 fps=684 q=-0.0 size=N/A time=00:13:19.86 bitrate=N/A speed=22.8x    frame=24293 fps=683 q=-0.0 size=N/A time=00:13:30.57 bitrate=N/A speed=22.8x    frame=24523 fps=680 q=-0.0 size=N/A time=00:13:38.25 bitrate=N/A speed=22.7x    frame=24754 fps=676 q=-0.0 size=N/A time=00:13:45.95 bitrate=N/A speed=22.6x    frame=24979 fps=673 q=-0.0 size=N/A time=00:13:53.46 bitrate=N/A speed=22.5x    frame=25259 fps=671 q=-0.0 size=N/A time=00:14:02.80 bitrate=N/A speed=22.4x    frame=25549 fps=670 q=-0.0 size=N/A time=00:14:12.48 bitrate=N/A speed=22.3x    frame=25884 fps=669 q=-0.0 size=N/A time=00:14:23.66 bitrate=N/A speed=22.3x    frame=26146 fps=667 q=-0.0 size=N/A time=00:14:32.40 bitrate=N/A speed=22.3x    frame=26449 fps=666 q=-0.0 size=N/A time=00:14:42.51 bitrate=N/A speed=22.2x    frame=26716 fps=664 q=-0.0 size=N/A time=00:14:51.42 bitrate=N/A speed=22.2x    frame=26990 fps=663 q=-0.0 size=N/A time=00:15:00.56 bitrate=N/A speed=22.1x    frame=27301 fps=662 q=-0.0 size=N/A time=00:15:10.94 bitrate=N/A speed=22.1x    frame=27720 fps=664 q=-0.0 size=N/A time=00:15:24.92 bitrate=N/A speed=22.1x    frame=28271 fps=669 q=-0.0 size=N/A time=00:15:43.30 bitrate=N/A speed=22.3x    frame=28820 fps=673 q=-0.0 size=N/A time=00:16:01.62 bitrate=N/A speed=22.5x    frame=29301 fps=676 q=-0.0 size=N/A time=00:16:17.67 bitrate=N/A speed=22.6x    frame=29755 fps=679 q=-0.0 size=N/A time=00:16:32.82 bitrate=N/A speed=22.6x    frame=30325 fps=684 q=-0.0 size=N/A time=00:16:51.84 bitrate=N/A speed=22.8x    frame=30892 fps=689 q=-0.0 size=N/A time=00:17:10.76 bitrate=N/A speed=  23x    frame=31453 fps=693 q=-0.0 size=N/A time=00:17:29.48 bitrate=N/A speed=23.1x    frame=31951 fps=696 q=-0.0 size=N/A time=00:17:46.09 bitrate=N/A speed=23.2x    frame=32539 fps=701 q=-0.0 size=N/A time=00:18:05.71 bitrate=N/A speed=23.4x    frame=33097 fps=705 q=-0.0 size=N/A time=00:18:24.33 bitrate=N/A speed=23.5x    frame=33558 fps=707 q=-0.0 size=N/A time=00:18:39.71 bitrate=N/A speed=23.6x    frame=33974 fps=708 q=-0.0 size=N/A time=00:18:53.59 bitrate=N/A speed=23.6x    frame=34499 fps=712 q=-0.0 size=N/A time=00:19:11.11 bitrate=N/A speed=23.7x    frame=35007 fps=714 q=-0.0 size=N/A time=00:19:28.06 bitrate=N/A speed=23.8x    frame=35528 fps=718 q=-0.0 size=N/A time=00:19:45.45 bitrate=N/A speed=23.9x    frame=36051 fps=721 q=-0.0 size=N/A time=00:20:02.90 bitrate=N/A speed=  24x    frame=36585 fps=724 q=-0.0 size=N/A time=00:20:20.71 bitrate=N/A speed=24.2x    frame=37193 fps=728 q=-0.0 size=N/A time=00:20:41.00 bitrate=N/A speed=24.3x    frame=37692 fps=731 q=-0.0 size=N/A time=00:20:57.65 bitrate=N/A speed=24.4x    frame=38120 fps=732 q=-0.0 size=N/A time=00:21:11.93 bitrate=N/A speed=24.4x    frame=38597 fps=734 q=-0.0 size=N/A time=00:21:27.85 bitrate=N/A speed=24.5x    frame=39018 fps=735 q=-0.0 size=N/A time=00:21:41.90 bitrate=N/A speed=24.5x    frame=39392 fps=735 q=-0.0 size=N/A time=00:21:54.37 bitrate=N/A speed=24.5x    frame=39789 fps=735 q=-0.0 size=N/A time=00:22:07.62 bitrate=N/A speed=24.5x    frame=40122 fps=734 q=-0.0 size=N/A time=00:22:18.73 bitrate=N/A speed=24.5x    frame=40342 fps=731 q=-0.0 size=N/A time=00:22:26.07 bitrate=N/A speed=24.4x    frame=40682 fps=730 q=-0.0 size=N/A time=00:22:37.42 bitrate=N/A speed=24.4x    frame=40997 fps=729 q=-0.0 size=N/A time=00:22:47.93 bitrate=N/A speed=24.3x    frame=41425 fps=730 q=-0.0 size=N/A time=00:23:02.21 bitrate=N/A speed=24.4x    frame=41836 fps=731 q=-0.0 size=N/A time=00:23:15.92 bitrate=N/A speed=24.4x    frame=42282 fps=732 q=-0.0 size=N/A time=00:23:30.80 bitrate=N/A speed=24.4x    frame=42754 fps=734 q=-0.0 size=N/A time=00:23:46.55 bitrate=N/A speed=24.5x    [Parsed_ssim_10 @ 0000013fd3b40b80] SSIM Y:0.986179 (18.594536) U:0.983338 (17.782712) V:0.984506 (18.098262) All:0.985426 (18.364346)
[out#0/null @ 0000013fd3162000] video:18541KiB audio:269976KiB subtitle:0KiB other streams:0KiB global headers:0KiB muxing overhead: unknown
frame=43149 fps=736 q=-0.0 Lsize=N/A time=00:23:59.73 bitrate=N/A speed=24.6x    
